HIERARCHY
ROOT SpineBase
{
  OFFSET 0.000000 0.000000 0.000000
  CHANNELS 6 Xposition Yposition Zposition Zrotation Xrotation Yrotation
  JOINT SpineMid
  {
    OFFSET 0.000000 29.288705 0.000000
    CHANNELS 3 Zrotation Xrotation Yrotation
    JOINT SpineShoulder
    {
      OFFSET 0.035387 21.878042 -0.605063
      CHANNELS 3 Zrotation Xrotation Yrotation
      JOINT Neck
      {
        OFFSET 0.065006 7.239734 -0.478484
        CHANNELS 3 Zrotation Xrotation Yrotation
        JOINT Head
        {
          OFFSET -5.092697 12.828027 -1.583929
          CHANNELS 3 Zrotation Xrotation Yrotation
          End Site
          {
            OFFSET 0 0 0
          }
        }
      }
      JOINT ShoulderLeft
      {
        OFFSET -15.640531 -5.181821 6.595770
        CHANNELS 3 Zrotation Xrotation Yrotation
        JOINT ElbowLeft
        {
          OFFSET -1.031269 -25.929404 1.557528
          CHANNELS 3 Zrotation Xrotation Yrotation
          JOINT WristLeft
          {
            OFFSET 1.804247 -19.741802 -8.982066
            CHANNELS 3 Zrotation Xrotation Yrotation
            JOINT HandLeft
            {
              OFFSET 0.467720 -2.674207 0.403109
              CHANNELS 3 Zrotation Xrotation Yrotation
              JOINT HandTipLeft
              {
                OFFSET -0.116403 -6.743842 -1.910513
                CHANNELS 3 Zrotation Xrotation Yrotation
                End Site
                {
                  OFFSET 0 0 0
                }
              }
              JOINT ThumbLeft
              {
                OFFSET -3.515686 1.090189 -2.663402
                CHANNELS 3 Zrotation Xrotation Yrotation
                End Site
                {
                  OFFSET 0 0 0
                }
              }
            }
          }
        }
      }
      JOINT ShoulderRight
      {
        OFFSET 14.148070 -2.759794 -8.650002
        CHANNELS 3 Zrotation Xrotation Yrotation
        JOINT ElbowRight
        {
          OFFSET 5.321626 -23.210409 -1.455646
          CHANNELS 3 Zrotation Xrotation Yrotation
          JOINT WristRight
          {
            OFFSET -4.034899 -20.716826 -4.856938
            CHANNELS 3 Zrotation Xrotation Yrotation
            JOINT HandRight
            {
              OFFSET -1.270863 -4.895854 -0.019884
              CHANNELS 3 Zrotation Xrotation Yrotation
              JOINT HandTipRight
              {
                OFFSET -1.597701 -7.291624 -0.960382
                CHANNELS 3 Zrotation Xrotation Yrotation
                End Site
                {
                  OFFSET 0 0 0
                }
              }
              JOINT ThumbRight
              {
                OFFSET -3.118033 0.003550 0.294544
                CHANNELS 3 Zrotation Xrotation Yrotation
                End Site
                {
                  OFFSET 0 0 0
                }
              }
            }
          }
        }
      }
    }
  }
  JOINT HipLeft
  {
    OFFSET -6.382374 0.603397 -0.477697
    CHANNELS 3 Zrotation Xrotation Yrotation
    JOINT KneeLeft
    {
      OFFSET 6.762973 -29.958498 7.884730
      CHANNELS 3 Zrotation Xrotation Yrotation
      JOINT AnkleLeft
      {
        OFFSET 7.172117 -29.977788 5.158802
        CHANNELS 3 Zrotation Xrotation Yrotation
        JOINT FootLeft
        {
          OFFSET -1.074480 -5.902361 -8.698925
          CHANNELS 3 Zrotation Xrotation Yrotation
          End Site
          {
            OFFSET 0 0 0
          }
        }
      }
    }
  }
  JOINT HipRight
  {
    OFFSET 7.002525 1.101597 -5.848730
    CHANNELS 3 Zrotation Xrotation Yrotation
    JOINT KneeRight
    {
      OFFSET 7.661346 -26.745638 4.983671
      CHANNELS 3 Zrotation Xrotation Yrotation
      JOINT AnkleRight
      {
        OFFSET 2.938862 -35.027420 9.031256
        CHANNELS 3 Zrotation Xrotation Yrotation
        JOINT FootRight
        {
          OFFSET -4.097834 -4.436743 -10.837551
          CHANNELS 3 Zrotation Xrotation Yrotation
          End Site
          {
            OFFSET 0 0 0
          }
        }
      }
    }
  }
}
MOTION
Frames: 5
Frame Time: 0.033333
-33.667125 68.948933 342.347803 -0.000000 0.000000 21.864389 0.000000 0.000000 -21.864389 -0.000000 0.000000 0.000000 -0.000000 0.000000 0.000000 0.000000 0.000000 0.000000 -0.000000 0.000000 0.000000 -0.000000 0.000000 0.000000 -0.000000 0.000000 0.000000 -0.000000 0.000000 0.000000 0.000000 0.000000 0.000000 0.000000 0.000000 0.000000 -0.000000 0.000000 0.000000 -0.000000 0.000000 0.000000 -0.000000 0.000000 0.000000 -0.000000 0.000000 0.000000 0.000000 0.000000 0.000000 0.000000 0.000000 0.000000 0.000000 0.000000 -21.864389 -0.000000 0.000000 0.000000 -0.000000 0.000000 0.000000 0.000000 0.000000 0.000000 0.000000 0.000000 -21.864389 -0.000000 0.000000 0.000000 -0.000000 0.000000 0.000000 0.000000 0.000000 0.000000
-33.425657 68.882966 342.445054 0.155664 -0.080918 22.429719 -0.113014 0.134190 -22.429477 -0.000000 0.000000 0.000000 -0.000000 0.000000 0.000000 0.000000 0.000000 0.000000 -0.000000 0.000000 0.000000 -0.248007 -2.757295 -0.146812 -0.516988 1.669795 -0.140201 1.364893 -2.113063 0.189098 0.000000 0.000000 0.000000 0.000000 0.000000 0.000000 -0.000000 0.000000 0.000000 2.728711 -0.397439 -0.556005 3.080564 -1.004578 0.960100 -5.790954 1.466983 -0.279395 0.000000 0.000000 0.000000 0.000000 0.000000 0.000000 -0.113014 0.134190 -22.429477 -0.000000 0.000000 0.000000 7.335241 -4.277369 -10.441641 0.000000 0.000000 0.000000 -0.113014 0.134190 -22.429477 -0.000000 0.000000 0.000000 -0.000000 0.000000 0.000000 0.000000 0.000000 0.000000
-33.220041 68.826987 342.543728 0.268913 -0.175619 22.876300 -0.179493 0.266342 -22.875470 -0.000000 0.000000 0.000000 -0.000000 0.000000 0.000000 0.000000 0.000000 0.000000 -1.060078 -0.912897 -0.035785 0.568452 -4.263453 -0.250159 -1.002188 3.425039 -0.184275 3.213133 -4.000357 0.152318 0.000000 0.000000 0.000000 0.000000 0.000000 0.000000 1.007381 -0.229657 -0.113601 3.918808 -0.482551 -0.896496 4.623225 -1.333508 1.640707 -10.286122 0.827208 0.082878 0.000000 0.000000 0.000000 0.000000 0.000000 0.000000 -0.830108 0.813564 -23.026692 0.072673 0.081555 0.110320 13.997532 -9.586721 -19.266774 0.000000 0.000000 0.000000 -0.179493 0.266342 -22.875470 -0.000000 0.000000 0.000000 -0.000000 0.000000 0.000000 0.000000 0.000000 0.000000
-33.050276 68.780996 342.643826 0.340085 -0.284131 23.202047 -0.200645 0.395133 -23.200512 -0.000000 0.000000 0.000000 -0.000000 0.000000 0.000000 0.000000 0.000000 0.000000 -1.394485 -1.366844 -0.045983 0.664377 -5.874797 -0.356632 -1.429440 5.330389 -0.123503 5.495169 -5.629223 -0.095927 0.000000 0.000000 0.000000 0.000000 0.000000 0.000000 1.356776 -0.355056 -0.161889 5.221053 -0.582685 -1.192048 4.673385 -1.102299 1.985269 -12.320112 0.098110 0.332221 0.000000 0.000000 0.000000 0.000000 0.000000 0.000000 -1.062539 1.178621 -23.393060 0.100990 0.044474 0.134536 18.357413 -14.241099 -25.875692 0.000000 0.000000 0.000000 -0.200645 0.395133 -23.200512 -0.000000 0.000000 0.000000 0.630098 -1.081085 -0.550134 0.000000 0.000000 0.000000
-32.916363 68.744992 342.745348 0.369431 -0.406515 23.405532 -0.177560 0.519812 -23.403416 -0.000000 0.000000 0.000000 -0.000000 0.000000 0.000000 0.000000 0.000000 0.000000 -1.601943 -1.819432 -0.049227 0.641953 -7.124908 -0.444247 -1.773127 7.446249 0.047482 8.142090 -7.008635 -0.520602 0.000000 0.000000 0.000000 0.000000 0.000000 0.000000 1.611165 -0.488301 -0.205535 6.067831 -0.574589 -1.390067 3.344549 -0.394645 2.002642 -12.397108 -1.333076 0.621739 0.000000 0.000000 0.000000 0.000000 0.000000 0.000000 -1.177388 1.510821 -23.615898 0.120412 -0.042847 0.137342 21.071586 -17.788244 -30.262661 0.000000 0.000000 0.000000 -0.177560 0.519812 -23.403416 0.588312 0.568237 0.196614 0.483462 -3.258163 -0.337642 0.000000 0.000000 0.000000
